<svg viewBox="0 0 60 51" xmlns="http://www.w3.org/2000/svg"><path d="M52.597 22.88v19.946c0 .024 0 .049-.002.075l-.002.034a.313.313 0 0 1-.003.034v.014a2.385 2.385 0 0 1-.004.022l-.007.052a.712.712 0 0 1-.019.092.184.184 0 0 1-.006.025l-.011.043a.022.022 0 0 1-.002.009c-.008.025-.015.05-.025.074v.004l-.015.037-.012.032a.042.042 0 0 0-.004.01c-.014.03-.027.063-.044.092a.966.966 0 0 1-.016.032l-.017.03c-.006.01-.01.02-.018.029a.918.918 0 0 1-.037.057l-.023.035c-.02.026-.037.05-.059.075a.96.96 0 0 1-.045.052l-.047.05-.023.022a.496.496 0 0 1-.049.044l-.008.007a1.117 1.117 0 0 1-.075.062l-.056.04-.019.012-.03.02a.167.167 0 0 1-.026.014 1.299 1.299 0 0 1-.23.11l-.014.004-.015.005a.366.366 0 0 1-.05.016c-.029.01-.058.016-.086.023l-.045.01a.235.235 0 0 1-.03.005l-.035.007-.005.001-.029.004-.014.001-.025.004H51.3l-.053.004-.076.002H15.93c-.026 0-.052 0-.077-.002l-.053-.003a.528.528 0 0 1-.093-.012.902.902 0 0 1-.105-.02 1.147 1.147 0 0 1-.087-.024l-.05-.016a1.555 1.555 0 0 1-.223-.098l-.052-.031a1.433 1.433 0 0 1-.579-.674l-.027-.073c-.01-.024-.017-.05-.025-.075-.008-.024-.013-.05-.02-.076a2.204 2.204 0 0 1-.014-.071l-.002-.012a1.551 1.551 0 0 1-.02-.24V22.88a1.424 1.424 0 0 1 .53-1.108l.074-.056c.24-.17.528-.262.823-.262h35.24a.986.986 0 0 1 .12.006c.032.002.066.006.097.01l.022.004a.962.962 0 0 1 .102.022 1.44 1.44 0 0 1 .375.15.94.94 0 0 1 .107.07l.075.055a1.274 1.274 0 0 1 .259.273 1.343 1.343 0 0 1 .183.345l.002.003a1.327 1.327 0 0 1 .055.196l.01.05.007.053a.42.42 0 0 1 .007.062.41.41 0 0 1 .004.053l.001.074Z" fill="#DFE5EA"/><path d="M52.513 22.393H14.59a1.427 1.427 0 0 1 .444-.622l.074-.056L32.678 8.38a1.444 1.444 0 0 1 1.748 0l17.569 13.336c0-.001 0 0 0 0l.075.056a1.261 1.261 0 0 1 .259.273 1.339 1.339 0 0 1 .184.345v.004Z" fill="#5B97EF"/><path d="M19.324 10.632H47.31a2.555 2.555 0 0 1 2.555 2.555v30.027H16.77V13.188a2.554 2.554 0 0 1 2.554-2.555Z" fill="#fff"/><path d="M45.476 16.34H21.158a.62.62 0 0 0-.619.62v.264c0 .342.277.619.62.619h24.317a.62.62 0 0 0 .62-.62v-.263a.62.62 0 0 0-.62-.62Zm-24.318 3.21h24.318a.62.62 0 0 1 .62.62v.263a.62.62 0 0 1-.62.62H21.158a.62.62 0 0 1-.619-.62v-.263a.62.62 0 0 1 .62-.62Zm0 3.209h24.318a.62.62 0 0 1 .62.62v.263a.62.62 0 0 1-.62.619H21.158a.619.619 0 0 1-.619-.62v-.263a.617.617 0 0 1 .62-.62Zm0 3.209h24.318a.62.62 0 0 1 .62.62v.263a.62.62 0 0 1-.62.619H21.158a.62.62 0 0 1-.619-.62v-.263a.619.619 0 0 1 .62-.62Zm0 3.209h24.318a.62.62 0 0 1 .62.62v.263a.62.62 0 0 1-.62.619H21.158a.62.62 0 0 1-.619-.62v-.263a.616.616 0 0 1 .62-.62Z" fill="#E4ECF9"/><path d="M33.551 33.388a.939.939 0 0 1-.196.163L16.01 44.253h-.08c-.14 0-.279-.02-.413-.061l-.054-.017a1.415 1.415 0 0 1-.752-.61l-.035-.058a1.419 1.419 0 0 1-.172-.68V22.878a1.424 1.424 0 0 1 .53-1.108l.074-.056c.24-.17.528-.262.823-.262h.326l1.523.94 14.04 8.663.528.325 1.008.622a.913.913 0 0 1 .196 1.385Z" fill="#3B82F4"/><path d="M52.602 22.88v19.947c0 .024 0 .048-.002.074l-.002.035a.313.313 0 0 1-.003.033v.014l-.004.022-.007.052a.72.72 0 0 1-.01.05v.008a.15.15 0 0 1-.005.016.047.047 0 0 1-.004.019.738.738 0 0 1-.045.154.28.28 0 0 1-.014.037l-.012.033a.05.05 0 0 0-.004.009c-.014.031-.028.064-.044.093l-.016.031-.017.03c-.006.01-.01.02-.018.03l-.037.057-.023.035a1.672 1.672 0 0 1-.104.126l-.047.05-.024.023a.458.458 0 0 1-.049.044l-.007.007a1.12 1.12 0 0 1-.075.061l-.056.04-.019.012-.03.02a.172.172 0 0 1-.026.015 1.295 1.295 0 0 1-.244.114l-.015.005-.05.016c-.029.009-.058.016-.086.023l-.045.01a.235.235 0 0 1-.03.005l-.035.007h-.004c-.01 0-.02.003-.03.004l-.014.002-.025.003-.015.001-.053.004-.077.002h-.078L33.75 33.551a.904.904 0 0 1-.195-.162v-.001a.91.91 0 0 1 0-1.223v-.001a.9.9 0 0 1 .195-.162l1.006-.622.528-.325 14.041-8.663 1.523-.94h.326a.959.959 0 0 1 .12.006c.033.002.066.006.097.01l.022.004a.954.954 0 0 1 .103.022 1.385 1.385 0 0 1 .482.22l.075.056a1.263 1.263 0 0 1 .259.273 1.333 1.333 0 0 1 .183.344l.001.004a1.31 1.31 0 0 1 .056.195c.003.017.007.033.009.05l.008.053a.624.624 0 0 1 .01.115l.002.076Z" fill="#3B82F4"/><path opacity=".29" d="M52.598 42.557v.207c0 .823-.639 1.49-1.427 1.49h-35.24c-.788 0-1.427-.667-1.427-1.49v-.207L32.629 30.63a1.666 1.666 0 0 1 1.842 0l18.127 11.926Z" fill="#474747"/><path d="M52.598 42.63v.198a1.427 1.427 0 0 1-1.427 1.427h-35.24a1.427 1.427 0 0 1-1.427-1.427v-.199l18.125-11.424a1.726 1.726 0 0 1 1.842 0l18.127 11.424Z" fill="#5B97EF"/><path d="M21.158 13.132h10.606a.62.62 0 0 1 .62.62v.263a.62.62 0 0 1-.62.62H21.158a.62.62 0 0 1-.619-.62v-.264a.62.62 0 0 1 .62-.62Z" fill="#3B82F4"/><path d="M19.42 41.508h-.01a13.873 13.873 0 0 1-1.264-.108.233.233 0 0 1-.2-.262.233.233 0 0 1 .262-.201c.402.053.813.088 1.22.104a.233.233 0 0 1-.008.468Zm1.246-.006a.233.233 0 0 1-.17-.392.234.234 0 0 1 .159-.075c.403-.019.814-.057 1.222-.112a.234.234 0 0 1 .062.464c-.42.056-.845.095-1.261.115h-.012Zm-3.716-.322a.233.233 0 0 1-.053-.006c-.41-.094-.821-.21-1.222-.343a.231.231 0 0 1-.16-.205.234.234 0 0 1 .307-.238c.387.128.784.239 1.18.33a.234.234 0 0 1-.052.462Zm6.187-.005a.233.233 0 0 1-.189-.37.234.234 0 0 1 .14-.092c.397-.086.798-.188 1.192-.304a.234.234 0 0 1 .132.449c-.405.12-.818.224-1.226.312a.24.24 0 0 1-.05.005Zm2.393-.702a.234.234 0 0 1-.082-.453c.382-.143.765-.3 1.139-.47a.235.235 0 0 1 .256.043.235.235 0 0 1 .01.33.234.234 0 0 1-.073.053c-.383.174-.777.335-1.169.482a.24.24 0 0 1-.081.015Zm-10.947-.075a.233.233 0 0 1-.092-.018 17.826 17.826 0 0 1-1.144-.54.234.234 0 0 1 .215-.416c.37.191.745.369 1.113.526a.234.234 0 0 1-.092.45v-.002Zm13.219-.956a.234.234 0 0 1-.112-.44c.329-.177.642-.36.93-.545a.234.234 0 0 1 .252.394c-.298.19-.62.38-.96.563a.232.232 0 0 1-.11.029Zm-15.436-.188a.233.233 0 0 1-.121-.034 19.07 19.07 0 0 1-1.058-.692.234.234 0 0 1 .27-.382c.33.233.677.46 1.03.674a.234.234 0 0 1-.121.434Zm-2.037-1.44a.233.233 0 0 1-.15-.054c-.316-.26-.62-.532-.903-.806a.237.237 0 0 1-.059-.06.234.234 0 0 1 .303-.346c.378.084.76.148 1.145.19a.232.232 0 0 1 .199.168.234.234 0 0 1-.25.298c-.145-.016-.29-.035-.436-.057.098.085.198.17.3.253a.234.234 0 0 1-.15.415v-.001Zm1.555-.545a.234.234 0 0 1-.002-.468 10.2 10.2 0 0 0 1.22-.083.233.233 0 0 1 .253.295.234.234 0 0 1-.197.17l-.237.026c-.348.037-.692.057-1.033.06h-.004Zm2.477-.29a.234.234 0 0 1-.047-.462c.407-.086.807-.189 1.188-.307a.234.234 0 1 1 .138.447 13.8 13.8 0 0 1-1.23.317.246.246 0 0 1-.048.006Zm-6.148-.329a.232.232 0 0 1-.077-.013 11.81 11.81 0 0 1-1.175-.487.234.234 0 1 1 .202-.422c.367.176.744.332 1.128.468a.234.234 0 0 1-.078.454Zm8.531-.41a.234.234 0 0 1-.093-.449 9.38 9.38 0 0 0 1.086-.55.235.235 0 0 1 .355.167.234.234 0 0 1-.116.236c-.367.217-.748.41-1.14.577a.236.236 0 0 1-.092.02Zm-8.193-.17a.234.234 0 0 1-.18-.084 10.748 10.748 0 0 1-.761-1.02.233.233 0 0 1 .15-.364.235.235 0 0 1 .24.107c.224.34.468.666.73.977a.234.234 0 0 1-.179.384Zm-2.584-.497a.233.233 0 0 1-.123-.035 12.08 12.08 0 0 1-1.044-.726.234.234 0 0 1 .287-.37c.322.25.657.483 1.004.697a.234.234 0 0 1-.124.433v.001Zm12.908-.615a.234.234 0 0 1-.151-.413 6.17 6.17 0 0 0 .841-.854.234.234 0 1 1 .365.293 6.639 6.639 0 0 1-.905.92.232.232 0 0 1-.15.054ZM4 34.048a.232.232 0 0 1-.162-.066 11.772 11.772 0 0 1-.868-.93.234.234 0 0 1 .36-.3c.26.312.54.61.833.893a.234.234 0 0 1-.163.402Zm3.196-.065a.234.234 0 0 1-.212-.135 7.468 7.468 0 0 1-.443-1.207.234.234 0 1 1 .452-.121c.105.388.244.766.415 1.13a.234.234 0 0 1-.212.333Zm13.22-.96a.234.234 0 0 1-.208-.337 5.55 5.55 0 0 0 .39-1.055l.018-.066a.233.233 0 1 1 .453.113l-.018.071a5.986 5.986 0 0 1-.425 1.144.233.233 0 0 1-.208.13h-.001Zm-18.01-.886a.234.234 0 0 1-.196-.105c-.235-.354-.449-.72-.642-1.099a.234.234 0 0 1 .417-.212c.185.362.39.714.615 1.053a.234.234 0 0 1-.195.364v-.001Zm4.157-.55a.234.234 0 0 1-.233-.218 6.166 6.166 0 0 1 .051-1.293.234.234 0 1 1 .463.067 5.815 5.815 0 0 0-.047 1.196.234.234 0 0 1-.218.248h-.016Zm14.457-.965h-.01a.233.233 0 0 1-.223-.244 6.63 6.63 0 0 0-.06-1.2.234.234 0 1 1 .462-.066 7.08 7.08 0 0 1 .065 1.286.234.234 0 0 1-.234.224Zm-19.744-.704a.234.234 0 0 1-.219-.152 11.534 11.534 0 0 1-.378-1.215.234.234 0 0 1 .454-.114c.1.394.22.784.362 1.165a.234.234 0 0 1-.219.317v-.001Zm5.632-.785a.228.228 0 0 1-.154-.058.233.233 0 0 1-.067-.251c.138-.405.308-.799.506-1.178a.234.234 0 0 1 .415.216c-.188.358-.347.73-.478 1.112a.233.233 0 0 1-.223.159Zm13.769-.969a.234.234 0 0 1-.224-.162 7.534 7.534 0 0 0-.462-1.116.232.232 0 0 1 .028-.261.231.231 0 0 1 .16-.082.235.235 0 0 1 .228.13c.196.381.36.778.492 1.186a.233.233 0 0 1-.224.305h.002Zm-20.011-.66a.234.234 0 0 1-.232-.2 12.65 12.65 0 0 1-.114-1.266.234.234 0 0 1 .468-.018c.016.407.053.814.11 1.218a.234.234 0 0 1-.232.267Zm7.381-.58a.233.233 0 0 1-.233-.25.234.234 0 0 1 .042-.119c.246-.348.513-.68.8-.995a.234.234 0 1 1 .346.316c-.275.3-.53.617-.764.949a.233.233 0 0 1-.19.098Zm11.499-.971a.233.233 0 0 1-.19-.096 7.375 7.375 0 0 0-.79-.912.234.234 0 0 1 .327-.336c.307.3.588.625.841.972a.233.233 0 0 1-.188.372Zm-9.82-.867a.233.233 0 0 1-.15-.412c.325-.276.668-.53 1.028-.76a.234.234 0 0 1 .25.395 9.14 9.14 0 0 0-.976.722.232.232 0 0 1-.151.054v.001Zm-9.16-.071H.552a.236.236 0 0 1-.208-.157.234.234 0 0 1-.012-.09c.024-.423.07-.845.135-1.263a.234.234 0 1 1 .462.074c-.063.403-.107.81-.13 1.217a.234.234 0 0 1-.233.219Zm17.2-.795a.232.232 0 0 1-.13-.04 6.077 6.077 0 0 0-1.053-.573.234.234 0 0 1 .18-.432 6.53 6.53 0 0 1 1.135.618.234.234 0 0 1-.131.428h-.001Zm-5.938-.463a.234.234 0 0 1-.094-.447 7.35 7.35 0 0 1 1.218-.415.234.234 0 1 1 .11.454c-.39.096-.772.226-1.14.389a.23.23 0 0 1-.095.019Zm3.652-.488a.24.24 0 0 1-.042-.004 5.439 5.439 0 0 0-1.19-.084.234.234 0 0 1-.02-.468c.078-.003.161-.001.234-.004a5.9 5.9 0 0 1 1.06.096.234.234 0 0 1-.042.464ZM.967 22.557a.234.234 0 0 1-.225-.298c.115-.408.252-.81.41-1.203a.235.235 0 0 1 .306-.135.233.233 0 0 1 .128.31c-.152.377-.283.763-.394 1.154a.234.234 0 0 1-.225.172Zm.927-2.31a.23.23 0 0 1-.18-.084.234.234 0 0 1-.026-.26c.198-.374.416-.738.652-1.09a.235.235 0 0 1 .392-.002.234.234 0 0 1-.004.263 11.91 11.91 0 0 0-.628 1.049.234.234 0 0 1-.206.125Zm1.386-2.069a.234.234 0 0 1-.18-.382c.268-.324.556-.64.856-.939a.234.234 0 1 1 .33.331c-.29.289-.567.593-.825.906a.234.234 0 0 1-.18.085Zm1.765-1.76a.234.234 0 0 1-.15-.414c.324-.267.665-.523 1.015-.762a.233.233 0 0 1 .264.386c-.338.23-.668.479-.98.737a.233.233 0 0 1-.15.054Zm2.058-1.407a.233.233 0 0 1-.115-.438 14.84 14.84 0 0 1 1.132-.571.234.234 0 0 1 .192.427 14.07 14.07 0 0 0-1.095.553.233.233 0 0 1-.115.03Zm2.272-1.027a.234.234 0 0 1-.078-.454c.395-.14.803-.265 1.21-.373a.235.235 0 0 1 .262.344.234.234 0 0 1-.143.109c-.395.103-.79.224-1.173.36a.233.233 0 0 1-.079.014h.001Z" fill="#F4B545"/><path opacity=".1" d="M21.04 7.526 3.396 9.881l4.278 3.245.067 5.972 3.686-3.131 2.072 1.562 7.543-10.003Z" fill="#232323"/><path d="m8.125 18.737-.098-8.724 13.4-2.848L8.124 18.737Z" fill="#46C1AA"/><path d="M8.085 12.787c.067-.035 13.338-5.622 13.338-5.622L3.777 9.519l4.308 3.268Z" fill="#52D1BD"/><path d="m9.55 13.898-1.425 4.837 6.11-5.19-4.685.353Z" fill="#3CAF99"/><path d="m9.55 13.9 4.334 3.268 7.543-10.003L9.551 13.9Zm37.708 26.947c-.1.05-.2.099-.3.145a.235.235 0 0 1-.31-.114.235.235 0 0 1 .114-.31c.367-.17.72-.366 1.057-.59a.234.234 0 0 1 .258.39 8.322 8.322 0 0 1-.82.479Zm-1.463.565a.23.23 0 0 1-.046.018 7.666 7.666 0 0 1-1.263.228.234.234 0 0 1-.045-.465 7.14 7.14 0 0 0 1.187-.215.234.234 0 0 1 .167.434Zm3.245-1.792a.234.234 0 0 1-.261-.383c.303-.27.587-.56.853-.867a.234.234 0 1 1 .354.306 9.805 9.805 0 0 1-.896.91.232.232 0 0 1-.05.034Zm-5.716 2.03a.23.23 0 0 1-.121.025 8.954 8.954 0 0 1-1.268-.177.234.234 0 0 1 .097-.458c.396.085.798.14 1.202.168a.233.233 0 0 1 .214.186.234.234 0 0 1-.124.256Zm7.348-3.911a.234.234 0 0 1-.3-.34c.227-.337.435-.687.622-1.049a.234.234 0 1 1 .416.216c-.196.377-.413.742-.65 1.095a.234.234 0 0 1-.087.08v-.002ZM40.89 41.14a.234.234 0 0 1-.183.013c-.4-.14-.794-.302-1.177-.485a.234.234 0 0 1 .2-.422c.369.176.746.331 1.13.466a.234.234 0 0 1 .03.428Zm10.93-5.61a.234.234 0 0 1-.324-.292c.146-.38.269-.768.37-1.163a.234.234 0 1 1 .453.115 10.99 10.99 0 0 1-.386 1.215c-.02.054-.06.1-.113.126v-.001Zm.086-1.603a.234.234 0 0 1-.232-.406c.191-.123.375-.257.55-.401a.234.234 0 0 1-.133-.24c.05-.402.07-.807.061-1.212a.234.234 0 1 1 .468-.011 8.69 8.69 0 0 1-.05 1.156l.04-.038a.234.234 0 1 1 .327.335 6.328 6.328 0 0 1-1.031.818v-.001Zm-1.117.548a6.664 6.664 0 0 1-1.282.321.234.234 0 1 1-.069-.462 6.18 6.18 0 0 0 1.166-.287.233.233 0 0 1 .185.428Zm-12.151 5.599a.232.232 0 0 1-.227-.008 13.26 13.26 0 0 1-1.058-.707.233.233 0 0 1-.048-.327.234.234 0 0 1 .328-.048c.322.239.665.468 1.02.681a.234.234 0 0 1-.015.409Zm15.046-7.875a.233.233 0 0 1-.34-.196.234.234 0 0 1 .042-.146c.23-.33.433-.68.605-1.043a.235.235 0 0 1 .311-.112.232.232 0 0 1 .134.223.234.234 0 0 1-.022.089c-.184.388-.4.76-.645 1.112a.233.233 0 0 1-.085.074Zm-5.35 2.652a.232.232 0 0 1-.111.025 6.75 6.75 0 0 1-1.282-.152.234.234 0 0 1 .1-.457 6.32 6.32 0 0 0 1.194.141.234.234 0 0 1 .1.443Zm6.42-4.892a.234.234 0 0 1-.331-.275c.114-.388.2-.784.258-1.184a.234.234 0 1 1 .463.066c-.06.423-.152.841-.273 1.251a.234.234 0 0 1-.118.142Zm-8.834 4.344a.235.235 0 0 1-.208.003 4.573 4.573 0 0 1-1.088-.73.232.232 0 0 1-.063-.251.235.235 0 0 1 .377-.094c.293.263.622.483.977.653a.234.234 0 0 1 .005.42Zm6.434-3.67a.23.23 0 0 1-.15.022.235.235 0 0 1-.185-.182 5.409 5.409 0 0 0-.364-1.137.235.235 0 0 1 .114-.314.233.233 0 0 1 .312.122c.177.395.31.809.396 1.234a.234.234 0 0 1-.123.257v-.001Zm2.757-3.136a.233.233 0 0 1-.34-.21 9.357 9.357 0 0 0-.075-1.213.234.234 0 0 1 .465-.059c.053.423.079.849.077 1.275a.233.233 0 0 1-.128.209v-.002Zm-11 5.146a.235.235 0 0 1-.31-.093 4.774 4.774 0 0 1-.482-1.216.235.235 0 0 1 .172-.283.231.231 0 0 1 .244.089.233.233 0 0 1 .04.082 4.318 4.318 0 0 0 .433 1.096.233.233 0 0 1-.087.319l-.01.006Zm7.212-4.254a.235.235 0 0 1-.289-.064 6.335 6.335 0 0 0-.834-.865.234.234 0 0 1 .305-.354c.328.28.628.592.896.93a.235.235 0 0 1-.078.353Zm-7.818 1.862a.234.234 0 0 1-.34-.208c0-.434.05-.867.148-1.29a.234.234 0 1 1 .455.106 5.18 5.18 0 0 0-.135 1.183.233.233 0 0 1-.128.21Zm5.94-3.485a.233.233 0 0 1-.224-.007 5.756 5.756 0 0 0-1.087-.498.234.234 0 0 1 .147-.444c.41.138.804.319 1.177.539a.235.235 0 0 1-.012.41h-.001Zm-5.368 1.082a.234.234 0 0 1-.314-.316c.216-.41.48-.764.787-1.057a.234.234 0 1 1 .323.338 3.609 3.609 0 0 0-.696.936.234.234 0 0 1-.1.1Zm3.014-1.832a.23.23 0 0 1-.115.025 2.983 2.983 0 0 0-1.137.166.233.233 0 0 1-.257-.059.235.235 0 0 1 .098-.381 3.444 3.444 0 0 1 1.314-.194.234.234 0 0 1 .097.442Z" fill="#52D1BD"/><path opacity=".1" d="M57.382 25.887a4.557 4.557 0 1 0-6.444-6.444 4.557 4.557 0 0 0 6.444 6.444Z" fill="#232323"/><path d="M55.131 26.678a4.557 4.557 0 1 0 0-9.114 4.557 4.557 0 0 0 0 9.114Z" fill="#F4B545"/><path d="m55.943 20.8.108-.358.865.061-.665 2.314a1.882 1.882 0 0 0-.067.292.172.172 0 0 0 .03.12.117.117 0 0 0 .087.05c.118.008.276-.058.473-.199a2.005 2.005 0 0 0 .797-1.378 1.931 1.931 0 0 0-.09-.823 1.724 1.724 0 0 0-.388-.633 2 2 0 0 0-.668-.45 2.864 2.864 0 0 0-.929-.21 3.314 3.314 0 0 0-.99.07 2.488 2.488 0 0 0-.81.343c-.24.16-.448.366-.61.604a2.802 2.802 0 0 0-.358.719 3.294 3.294 0 0 0-.163.821c-.027.376.023.725.15 1.047.128.321.333.606.597.83.27.23.604.404 1.002.52a4.38 4.38 0 0 0 1.365.152 3.23 3.23 0 0 0 1.047-.202 2.03 2.03 0 0 0 .753-.52l.698.05a2.323 2.323 0 0 1-.488.595 2.526 2.526 0 0 1-.674.418c-.27.112-.553.189-.843.228a4.715 4.715 0 0 1-1 .028 4.664 4.664 0 0 1-1.436-.315c-.42-.172-.768-.4-1.043-.687a2.59 2.59 0 0 1-.599-.997 3.213 3.213 0 0 1-.14-1.237c.034-.465.142-.895.326-1.288.177-.383.43-.725.745-1.005a3.071 3.071 0 0 1 1.118-.624c.432-.138.902-.19 1.408-.153.416.03.792.117 1.13.263.337.146.621.341.852.586.23.242.402.531.508.848.108.32.148.668.121 1.044a2.484 2.484 0 0 1-.722 1.574 2.196 2.196 0 0 1-.728.482 1.917 1.917 0 0 1-.869.134c-.177-.013-.312-.053-.406-.12a.447.447 0 0 1-.177-.3c-.203.173-.43.276-.68.308a1.226 1.226 0 0 1-.713-.12 1.2 1.2 0 0 1-.528-.52c-.127-.234-.179-.517-.155-.847a2.48 2.48 0 0 1 .293-.997c.161-.31.397-.575.687-.77.277-.19.61-.28.945-.253.393.029.671.197.834.505Zm-1.912 1.57c-.02.262.021.467.12.614a.522.522 0 0 0 .415.24.728.728 0 0 0 .559-.207c.167-.152.3-.35.4-.596.094-.228.153-.47.172-.717a1.118 1.118 0 0 0-.018-.316.748.748 0 0 0-.104-.253.532.532 0 0 0-.436-.245.73.73 0 0 0-.535.188 1.469 1.469 0 0 0-.397.558c-.1.233-.16.48-.177.734Z" fill="#fff"/><path d="m46.775 3.749.493-.259a.152.152 0 0 1 .22.16l-.093.549a.152.152 0 0 0 .044.134l.399.389a.152.152 0 0 1-.085.26l-.55.08a.153.153 0 0 0-.115.083l-.246.499a.152.152 0 0 1-.273 0l-.246-.5a.152.152 0 0 0-.115-.083l-.55-.08a.152.152 0 0 1-.085-.259l.399-.389a.152.152 0 0 0 .043-.134l-.093-.549a.152.152 0 0 1 .221-.16l.493.259a.15.15 0 0 0 .14 0ZM6.72 43.361a1.31 1.31 0 1 1 0-2.619 1.31 1.31 0 0 1 0 2.62Zm0-2.259a.95.95 0 1 0 0 1.9.95.95 0 0 0 0-1.9Z" fill="#4786D1"/><path d="M7.188 42.523a.667.667 0 1 0-.943-.943.667.667 0 0 0 .943.943Zm26.597 7.351a.602.602 0 1 0 0-1.203.602.602 0 0 0 0 1.203ZM23.797 2.07a.602.602 0 1 0 0-1.204.602.602 0 0 0 0 1.204Z" fill="#4786D1"/></svg>